{
    "asset" : {
        "generator" : "Khronos glTF Blender I/O v3.4.50",
        "version" : "2.0"
    },
    "scene" : 0,
    "scenes" : [
        {
            "name" : "Scene",
            "nodes" : [
                26
            ]
        }
    ],
    "nodes" : [
        {
            "mesh" : 0,
            "name" : "puzzlecube_A"
        },
        {
            "mesh" : 1,
            "name" : "puzzlecube_B"
        },
        {
            "mesh" : 2,
            "name" : "puzzlecube_C"
        },
        {
            "mesh" : 3,
            "name" : "puzzlecube_D"
        },
        {
            "mesh" : 4,
            "name" : "puzzlecube_E"
        },
        {
            "mesh" : 5,
            "name" : "puzzlecube_F"
        },
        {
            "mesh" : 6,
            "name" : "puzzlecube_G"
        },
        {
            "mesh" : 7,
            "name" : "puzzlecube_H"
        },
        {
            "mesh" : 8,
            "name" : "puzzlecube_I"
        },
        {
            "mesh" : 9,
            "name" : "puzzlecube_J"
        },
        {
            "mesh" : 10,
            "name" : "puzzlecube_K"
        },
        {
            "mesh" : 11,
            "name" : "puzzlecube_L"
        },
        {
            "mesh" : 12,
            "name" : "puzzlecube_M"
        },
        {
            "mesh" : 13,
            "name" : "puzzlecube_N"
        },
        {
            "mesh" : 14,
            "name" : "puzzlecube_O"
        },
        {
            "mesh" : 15,
            "name" : "puzzlecube_P"
        },
        {
            "mesh" : 16,
            "name" : "puzzlecube_Q"
        },
        {
            "mesh" : 17,
            "name" : "puzzlecube_R"
        },
        {
            "mesh" : 18,
            "name" : "puzzlecube_S"
        },
        {
            "mesh" : 19,
            "name" : "puzzlecube_T"
        },
        {
            "mesh" : 20,
            "name" : "puzzlecube_U"
        },
        {
            "mesh" : 21,
            "name" : "puzzlecube_V"
        },
        {
            "mesh" : 22,
            "name" : "puzzlecube_W"
        },
        {
            "mesh" : 23,
            "name" : "puzzlecube_X"
        },
        {
            "mesh" : 24,
            "name" : "puzzlecube_Y"
        },
        {
            "mesh" : 25,
            "name" : "puzzlecube_Z"
        },
        {
            "children" : [
                0,
                1,
                2,
                3,
                4,
                5,
                6,
                7,
                8,
                9,
                10,
                11,
                12,
                13,
                14,
                15,
                16,
                17,
                18,
                19,
                20,
                21,
                22,
                23,
                24,
                25
            ],
            "mesh" : 26,
            "name" : "puzzlecube_center"
        }
    ],
    "materials" : [
        {
            "name" : "KayKit_Texture_A",
            "pbrMetallicRoughness" : {
                "baseColorTexture" : {
                    "index" : 0
                },
                "metallicFactor" : 0,
                "roughnessFactor" : 0.5
            }
        }
    ],
    "meshes" : [
        {
            "name" : "puzzlecube_A",
            "primitives" : [
                {
                    "attributes" : {
                        "POSITION" : 0,
                        "TEXCOORD_0" : 1,
                        "NORMAL" : 2
                    },
                    "indices" : 3,
                    "material" : 0
                }
            ]
        },
        {
            "name" : "puzzlecube_B",
            "primitives" : [
                {
                    "attributes" : {
                        "POSITION" : 4,
                        "TEXCOORD_0" : 5,
                        "NORMAL" : 6
                    },
                    "indices" : 7,
                    "material" : 0
                }
            ]
        },
        {
            "name" : "puzzlecube_C",
            "primitives" : [
                {
                    "attributes" : {
                        "POSITION" : 8,
                        "TEXCOORD_0" : 9,
                        "NORMAL" : 10
                    },
                    "indices" : 11,
                    "material" : 0
                }
            ]
        },
        {
            "name" : "puzzlecube_D",
            "primitives" : [
                {
                    "attributes" : {
                        "POSITION" : 12,
                        "TEXCOORD_0" : 13,
                        "NORMAL" : 14
                    },
                    "indices" : 15,
                    "material" : 0
                }
            ]
        },
        {
            "name" : "puzzlecube_E",
            "primitives" : [
                {
                    "attributes" : {
                        "POSITION" : 16,
                        "TEXCOORD_0" : 17,
                        "NORMAL" : 18
                    },
                    "indices" : 19,
                    "material" : 0
                }
            ]
        },
        {
            "name" : "puzzlecube_F",
            "primitives" : [
                {
                    "attributes" : {
                        "POSITION" : 20,
                        "TEXCOORD_0" : 21,
                        "NORMAL" : 22
                    },
                    "indices" : 23,
                    "material" : 0
                }
            ]
        },
        {
            "name" : "puzzlecube_G",
            "primitives" : [
                {
                    "attributes" : {
                        "POSITION" : 24,
                        "TEXCOORD_0" : 25,
                        "NORMAL" : 26
                    },
                    "indices" : 27,
                    "material" : 0
                }
            ]
        },
        {
            "name" : "puzzlecube_H",
            "primitives" : [
                {
                    "attributes" : {
                        "POSITION" : 28,
                        "TEXCOORD_0" : 29,
                        "NORMAL" : 30
                    },
                    "indices" : 31,
                    "material" : 0
                }
            ]
        },
        {
            "name" : "puzzlecube_I",
            "primitives" : [
                {
                    "attributes" : {
                        "POSITION" : 32,
                        "TEXCOORD_0" : 33,
                        "NORMAL" : 34
                    },
                    "indices" : 35,
                    "material" : 0
                }
            ]
        },
        {
            "name" : "puzzlecube_J",
            "primitives" : [
                {
                    "attributes" : {
                        "POSITION" : 36,
                        "TEXCOORD_0" : 37,
                        "NORMAL" : 38
                    },
                    "indices" : 39,
                    "material" : 0
                }
            ]
        },
        {
            "name" : "puzzlecube_K",
            "primitives" : [
                {
                    "attributes" : {
                        "POSITION" : 40,
                        "TEXCOORD_0" : 41,
                        "NORMAL" : 42
                    },
                    "indices" : 43,
                    "material" : 0
                }
            ]
        },
        {
            "name" : "puzzlecube_L",
            "primitives" : [
                {
                    "attributes" : {
                        "POSITION" : 44,
                        "TEXCOORD_0" : 45,
                        "NORMAL" : 46
                    },
                    "indices" : 47,
                    "material" : 0
                }
            ]
        },
        {
            "name" : "puzzlecube_M",
            "primitives" : [
                {
                    "attributes" : {
                        "POSITION" : 48,
                        "TEXCOORD_0" : 49,
                        "NORMAL" : 50
                    },
                    "indices" : 51,
                    "material" : 0
                }
            ]
        },
        {
            "name" : "puzzlecube_N",
            "primitives" : [
                {
                    "attributes" : {
                        "POSITION" : 52,
                        "TEXCOORD_0" : 53,
                        "NORMAL" : 54
                    },
                    "indices" : 55,
                    "material" : 0
                }
            ]
        },
        {
            "name" : "puzzlecube_O",
            "primitives" : [
                {
                    "attributes" : {
                        "POSITION" : 56,
                        "TEXCOORD_0" : 57,
                        "NORMAL" : 58
                    },
                    "indices" : 59,
                    "material" : 0
                }
            ]
        },
        {
            "name" : "puzzlecube_P",
            "primitives" : [
                {
                    "attributes" : {
                        "POSITION" : 60,
                        "TEXCOORD_0" : 61,
                        "NORMAL" : 62
                    },
                    "indices" : 63,
                    "material" : 0
                }
            ]
        },
        {
            "name" : "puzzlecube_Q",
            "primitives" : [
                {
                    "attributes" : {
                        "POSITION" : 64,
                        "TEXCOORD_0" : 65,
                        "NORMAL" : 66
                    },
                    "indices" : 67,
                    "material" : 0
                }
            ]
        },
        {
            "name" : "puzzlecube_R",
            "primitives" : [
                {
                    "attributes" : {
                        "POSITION" : 68,
                        "TEXCOORD_0" : 69,
                        "NORMAL" : 70
                    },
                    "indices" : 71,
                    "material" : 0
                }
            ]
        },
        {
            "name" : "puzzlecube_S",
            "primitives" : [
                {
                    "attributes" : {
                        "POSITION" : 72,
                        "TEXCOORD_0" : 73,
                        "NORMAL" : 74
                    },
                    "indices" : 75,
                    "material" : 0
                }
            ]
        },
        {
            "name" : "puzzlecube_T",
            "primitives" : [
                {
                    "attributes" : {
                        "POSITION" : 76,
                        "TEXCOORD_0" : 77,
                        "NORMAL" : 78
                    },
                    "indices" : 79,
                    "material" : 0
                }
            ]
        },
        {
            "name" : "puzzlecube_U",
            "primitives" : [
                {
                    "attributes" : {
                        "POSITION" : 80,
                        "TEXCOORD_0" : 81,
                        "NORMAL" : 82
                    },
                    "indices" : 83,
                    "material" : 0
                }
            ]
        },
        {
            "name" : "puzzlecube_V",
            "primitives" : [
                {
                    "attributes" : {
                        "POSITION" : 84,
                        "TEXCOORD_0" : 85,
                        "NORMAL" : 86
                    },
                    "indices" : 87,
                    "material" : 0
                }
            ]
        },
        {
            "name" : "puzzlecube_W",
            "primitives" : [
                {
                    "attributes" : {
                        "POSITION" : 88,
                        "TEXCOORD_0" : 89,
                        "NORMAL" : 90
                    },
                    "indices" : 91,
                    "material" : 0
                }
            ]
        },
        {
            "name" : "puzzlecube_X",
            "primitives" : [
                {
                    "attributes" : {
                        "POSITION" : 92,
                        "TEXCOORD_0" : 93,
                        "NORMAL" : 94
                    },
                    "indices" : 95,
                    "material" : 0
                }
            ]
        },
        {
            "name" : "puzzlecube_Y",
            "primitives" : [
                {
                    "attributes" : {
                        "POSITION" : 96,
                        "TEXCOORD_0" : 97,
                        "NORMAL" : 98
                    },
                    "indices" : 99,
                    "material" : 0
                }
            ]
        },
        {
            "name" : "puzzlecube_Z",
            "primitives" : [
                {
                    "attributes" : {
                        "POSITION" : 100,
                        "TEXCOORD_0" : 101,
                        "NORMAL" : 102
                    },
                    "indices" : 103,
                    "material" : 0
                }
            ]
        },
        {
            "name" : "puzzlecube_center",
            "primitives" : [
                {
                    "attributes" : {
                        "POSITION" : 104,
                        "TEXCOORD_0" : 105,
                        "NORMAL" : 106
                    },
                    "indices" : 107,
                    "material" : 0
                }
            ]
        }
    ],
    "textures" : [
        {
            "sampler" : 0,
            "source" : 0
        }
    ],
    "images" : [
        {
            "mimeType" : "image/png",
            "name" : "kaykit_texture_A",
            "uri" : "kaykit_texture_A.png"
        }
    ],
    "accessors" : [
        {
            "bufferView" : 0,
            "componentType" : 5126,
            "count" : 54,
            "max" : [
                -0.06666668504476547,
                0.2124127894639969,
                -0.06666659563779831
            ],
            "min" : [
                -0.21241284906864166,
                0.06666666269302368,
                -0.2124127596616745
            ],
            "type" : "VEC3"
        },
        {
            "bufferView" : 1,
            "componentType" : 5126,
            "count" : 54,
            "type" : "VEC2"
        },
        {
            "bufferView" : 2,
            "componentType" : 5126,
            "count" : 54,
            "type" : "VEC3"
        },
        {
            "bufferView" : 3,
            "componentType" : 5123,
            "count" : 108,
            "type" : "SCALAR"
        },
        {
            "bufferView" : 4,
            "componentType" : 5126,
            "count" : 42,
            "max" : [
                0.06666664034128189,
                0.2124127894639969,
                -0.06666664034128189
            ],
            "min" : [
                -0.06666672974824905,
                0.06666666269302368,
                -0.21241280436515808
            ],
            "type" : "VEC3"
        },
        {
            "bufferView" : 5,
            "componentType" : 5126,
            "count" : 42,
            "type" : "VEC2"
        },
        {
            "bufferView" : 6,
            "componentType" : 5126,
            "count" : 42,
            "type" : "VEC3"
        },
        {
            "bufferView" : 7,
            "componentType" : 5123,
            "count" : 84,
            "type" : "SCALAR"
        },
        {
            "bufferView" : 8,
            "componentType" : 5126,
            "count" : 54,
            "max" : [
                0.2124127894639969,
                0.2124127894639969,
                -0.06666666269302368
            ],
            "min" : [
                0.06666665524244308,
                0.06666666269302368,
                -0.21241280436515808
            ],
            "type" : "VEC3"
        },
        {
            "bufferView" : 9,
            "componentType" : 5126,
            "count" : 54,
            "type" : "VEC2"
        },
        {
            "bufferView" : 10,
            "componentType" : 5126,
            "count" : 54,
            "type" : "VEC3"
        },
        {
            "bufferView" : 11,
            "componentType" : 5123,
            "count" : 108,
            "type" : "SCALAR"
        },
        {
            "bufferView" : 12,
            "componentType" : 5126,
            "count" : 42,
            "max" : [
                -0.0666666328907013,
                0.2124127894639969,
                0.06666675955057144
            ],
            "min" : [
                -0.21241281926631927,
                0.06666666269302368,
                -0.0666666328907013
            ],
            "type" : "VEC3"
        },
        {
            "bufferView" : 13,
            "componentType" : 5126,
            "count" : 42,
            "type" : "VEC2"
        },
        {
            "bufferView" : 14,
            "componentType" : 5126,
            "count" : 42,
            "type" : "VEC3"
        },
        {
            "bufferView" : 15,
            "componentType" : 5123,
            "count" : 84,
            "type" : "SCALAR"
        },
        {
            "bufferView" : 16,
            "componentType" : 5126,
            "count" : 32,
            "max" : [
                0.06666666269302368,
                0.2124127894639969,
                0.06666666269302368
            ],
            "min" : [
                -0.06666666269302368,
                0.06666666269302368,
                -0.06666666269302368
            ],
            "type" : "VEC3"
        },
        {
            "bufferView" : 17,
            "componentType" : 5126,
            "count" : 32,
            "type" : "VEC2"
        },
        {
            "bufferView" : 18,
            "componentType" : 5126,
            "count" : 32,
            "type" : "VEC3"
        },
        {
            "bufferView" : 19,
            "componentType" : 5123,
            "count" : 60,
            "type" : "SCALAR"
        },
        {
            "bufferView" : 20,
            "componentType" : 5126,
            "count" : 42,
            "max" : [
                0.2124127894639969,
                0.2124127894639969,
                0.06666666269302368
            ],
            "min" : [
                0.06666666269302368,
                0.06666666269302368,
                -0.06666667014360428
            ],
            "type" : "VEC3"
        },
        {
            "bufferView" : 21,
            "componentType" : 5126,
            "count" : 42,
            "type" : "VEC2"
        },
        {
            "bufferView" : 22,
            "componentType" : 5126,
            "count" : 42,
            "type" : "VEC3"
        },
        {
            "bufferView" : 23,
            "componentType" : 5123,
            "count" : 84,
            "type" : "SCALAR"
        },
        {
            "bufferView" : 24,
            "componentType" : 5126,
            "count" : 54,
            "max" : [
                -0.06666656583547592,
                0.2124127894639969,
                0.21241287887096405
            ],
            "min" : [
                -0.2124127596616745,
                0.06666666269302368,
                0.06666669249534607
            ],
            "type" : "VEC3"
        },
        {
            "bufferView" : 25,
            "componentType" : 5126,
            "count" : 54,
            "type" : "VEC2"
        },
        {
            "bufferView" : 26,
            "componentType" : 5126,
            "count" : 54,
            "type" : "VEC3"
        },
        {
            "bufferView" : 27,
            "componentType" : 5123,
            "count" : 108,
            "type" : "SCALAR"
        },
        {
            "bufferView" : 28,
            "componentType" : 5126,
            "count" : 42,
            "max" : [
                0.06666666269302368,
                0.2124127894639969,
                0.2124127894639969
            ],
            "min" : [
                -0.06666666269302368,
                0.06666666269302368,
                0.06666666269302368
            ],
            "type" : "VEC3"
        },
        {
            "bufferView" : 29,
            "componentType" : 5126,
            "count" : 42,
            "type" : "VEC2"
        },
        {
            "bufferView" : 30,
            "componentType" : 5126,
            "count" : 42,
            "type" : "VEC3"
        },
        {
            "bufferView" : 31,
            "componentType" : 5123,
            "count" : 84,
            "type" : "SCALAR"
        },
        {
            "bufferView" : 32,
            "componentType" : 5126,
            "count" : 54,
            "max" : [
                0.2124127894639969,
                0.2124127894639969,
                0.2124127894639969
            ],
            "min" : [
                0.06666666269302368,
                0.06666666269302368,
                0.06666666269302368
            ],
            "type" : "VEC3"
        },
        {
            "bufferView" : 33,
            "componentType" : 5126,
            "count" : 54,
            "type" : "VEC2"
        },
        {
            "bufferView" : 34,
            "componentType" : 5126,
            "count" : 54,
            "type" : "VEC3"
        },
        {
            "bufferView" : 35,
            "componentType" : 5123,
            "count" : 108,
            "type" : "SCALAR"
        },
        {
            "bufferView" : 36,
            "componentType" : 5126,
            "count" : 42,
            "max" : [
                -0.0666666179895401,
                0.06666664779186249,
                -0.06666667014360428
            ],
            "min" : [
                -0.2124127894639969,
                -0.06666669994592667,
                -0.21241281926631927
            ],
            "type" : "VEC3"
        },
        {
            "bufferView" : 37,
            "componentType" : 5126,
            "count" : 42,
            "type" : "VEC2"
        },
        {
            "bufferView" : 38,
            "componentType" : 5126,
            "count" : 42,
            "type" : "VEC3"
        },
        {
            "bufferView" : 39,
            "componentType" : 5123,
            "count" : 84,
            "type" : "SCALAR"
        },
        {
            "bufferView" : 40,
            "componentType" : 5126,
            "count" : 32,
            "max" : [
                0.06666666269302368,
                0.06666666269302368,
                -0.06666666269302368
            ],
            "min" : [
                -0.06666666269302368,
                -0.06666667014360428,
                -0.2124127894639969
            ],
            "type" : "VEC3"
        },
        {
            "bufferView" : 41,
            "componentType" : 5126,
            "count" : 32,
            "type" : "VEC2"
        },
        {
            "bufferView" : 42,
            "componentType" : 5126,
            "count" : 32,
            "type" : "VEC3"
        },
        {
            "bufferView" : 43,
            "componentType" : 5123,
            "count" : 60,
            "type" : "SCALAR"
        },
        {
            "bufferView" : 44,
            "componentType" : 5126,
            "count" : 42,
            "max" : [
                0.21241280436515808,
                0.0666666254401207,
                -0.06666667014360428
            ],
            "min" : [
                0.06666659563779831,
                -0.06666677445173264,
                -0.21241281926631927
            ],
            "type" : "VEC3"
        },
        {
            "bufferView" : 45,
            "componentType" : 5126,
            "count" : 42,
            "type" : "VEC2"
        },
        {
            "bufferView" : 46,
            "componentType" : 5126,
            "count" : 42,
            "type" : "VEC3"
        },
        {
            "bufferView" : 47,
            "componentType" : 5123,
            "count" : 84,
            "type" : "SCALAR"
        },
        {
            "bufferView" : 48,
            "componentType" : 5126,
            "count" : 32,
            "max" : [
                -0.0666666179895401,
                0.06666675955057144,
                0.06666665524244308
            ],
            "min" : [
                -0.21241281926631927,
                -0.0666666328907013,
                -0.06666669249534607
            ],
            "type" : "VEC3"
        },
        {
            "bufferView" : 49,
            "componentType" : 5126,
            "count" : 32,
            "type" : "VEC2"
        },
        {
            "bufferView" : 50,
            "componentType" : 5126,
            "count" : 32,
            "type" : "VEC3"
        },
        {
            "bufferView" : 51,
            "componentType" : 5123,
            "count" : 60,
            "type" : "SCALAR"
        },
        {
            "bufferView" : 52,
            "componentType" : 5126,
            "count" : 32,
            "max" : [
                0.21241280436515808,
                0.06666669994592667,
                0.06666665524244308
            ],
            "min" : [
                0.06666664034128189,
                -0.06666664779186249,
                -0.06666669249534607
            ],
            "type" : "VEC3"
        },
        {
            "bufferView" : 53,
            "componentType" : 5126,
            "count" : 32,
            "type" : "VEC2"
        },
        {
            "bufferView" : 54,
            "componentType" : 5126,
            "count" : 32,
            "type" : "VEC3"
        },
        {
            "bufferView" : 55,
            "componentType" : 5123,
            "count" : 60,
            "type" : "SCALAR"
        },
        {
            "bufferView" : 56,
            "componentType" : 5126,
            "count" : 42,
            "max" : [
                -0.06666664034128189,
                0.06666675955057144,
                0.2124127745628357
            ],
            "min" : [
                -0.21241284906864166,
                -0.0666666328907013,
                0.0666666328907013
            ],
            "type" : "VEC3"
        },
        {
            "bufferView" : 57,
            "componentType" : 5126,
            "count" : 42,
            "type" : "VEC2"
        },
        {
            "bufferView" : 58,
            "componentType" : 5126,
            "count" : 42,
            "type" : "VEC3"
        },
        {
            "bufferView" : 59,
            "componentType" : 5123,
            "count" : 84,
            "type" : "SCALAR"
        },
        {
            "bufferView" : 60,
            "componentType" : 5126,
            "count" : 32,
            "max" : [
                0.06666666269302368,
                0.06666666269302368,
                0.2124127894639969
            ],
            "min" : [
                -0.06666666269302368,
                -0.06666667014360428,
                0.06666666269302368
            ],
            "type" : "VEC3"
        },
        {
            "bufferView" : 61,
            "componentType" : 5126,
            "count" : 32,
            "type" : "VEC2"
        },
        {
            "bufferView" : 62,
            "componentType" : 5126,
            "count" : 32,
            "type" : "VEC3"
        },
        {
            "bufferView" : 63,
            "componentType" : 5123,
            "count" : 60,
            "type" : "SCALAR"
        },
        {
            "bufferView" : 64,
            "componentType" : 5126,
            "count" : 42,
            "max" : [
                0.21241283416748047,
                0.06666669994592667,
                0.2124127745628357
            ],
            "min" : [
                0.06666665524244308,
                -0.06666664779186249,
                0.0666666328907013
            ],
            "type" : "VEC3"
        },
        {
            "bufferView" : 65,
            "componentType" : 5126,
            "count" : 42,
            "type" : "VEC2"
        },
        {
            "bufferView" : 66,
            "componentType" : 5126,
            "count" : 42,
            "type" : "VEC3"
        },
        {
            "bufferView" : 67,
            "componentType" : 5123,
            "count" : 84,
            "type" : "SCALAR"
        },
        {
            "bufferView" : 68,
            "componentType" : 5126,
            "count" : 54,
            "max" : [
                -0.06666667014360428,
                -0.06666654348373413,
                -0.06666668504476547
            ],
            "min" : [
                -0.21241284906864166,
                -0.2124127447605133,
                -0.21241284906864166
            ],
            "type" : "VEC3"
        },
        {
            "bufferView" : 69,
            "componentType" : 5126,
            "count" : 54,
            "type" : "VEC2"
        },
        {
            "bufferView" : 70,
            "componentType" : 5126,
            "count" : 54,
            "type" : "VEC3"
        },
        {
            "bufferView" : 71,
            "componentType" : 5123,
            "count" : 108,
            "type" : "SCALAR"
        },
        {
            "bufferView" : 72,
            "componentType" : 5126,
            "count" : 42,
            "max" : [
                0.06666671484708786,
                -0.06666658818721771,
                -0.06666665524244308
            ],
            "min" : [
                -0.06666670739650726,
                -0.2124127894639969,
                -0.21241286396980286
            ],
            "type" : "VEC3"
        },
        {
            "bufferView" : 73,
            "componentType" : 5126,
            "count" : 42,
            "type" : "VEC2"
        },
        {
            "bufferView" : 74,
            "componentType" : 5126,
            "count" : 42,
            "type" : "VEC3"
        },
        {
            "bufferView" : 75,
            "componentType" : 5123,
            "count" : 84,
            "type" : "SCALAR"
        },
        {
            "bufferView" : 76,
            "componentType" : 5126,
            "count" : 54,
            "max" : [
                0.21241283416748047,
                -0.0666666328907013,
                -0.0666666030883789
            ],
            "min" : [
                0.0666666179895401,
                -0.21241283416748047,
                -0.21241280436515808
            ],
            "type" : "VEC3"
        },
        {
            "bufferView" : 77,
            "componentType" : 5126,
            "count" : 54,
            "type" : "VEC2"
        },
        {
            "bufferView" : 78,
            "componentType" : 5126,
            "count" : 54,
            "type" : "VEC3"
        },
        {
            "bufferView" : 79,
            "componentType" : 5123,
            "count" : 108,
            "type" : "SCALAR"
        },
        {
            "bufferView" : 80,
            "componentType" : 5126,
            "count" : 42,
            "max" : [
                -0.06666667759418488,
                -0.06666658073663712,
                0.06666664034128189
            ],
            "min" : [
                -0.21241284906864166,
                -0.2124127745628357,
                -0.06666672974824905
            ],
            "type" : "VEC3"
        },
        {
            "bufferView" : 81,
            "componentType" : 5126,
            "count" : 42,
            "type" : "VEC2"
        },
        {
            "bufferView" : 82,
            "componentType" : 5126,
            "count" : 42,
            "type" : "VEC3"
        },
        {
            "bufferView" : 83,
            "componentType" : 5123,
            "count" : 84,
            "type" : "SCALAR"
        },
        {
            "bufferView" : 84,
            "componentType" : 5126,
            "count" : 32,
            "max" : [
                0.06666669994592667,
                -0.0666666328907013,
                0.06666665524244308
            ],
            "min" : [
                -0.06666666269302368,
                -0.21241281926631927,
                -0.06666672229766846
            ],
            "type" : "VEC3"
        },
        {
            "bufferView" : 85,
            "componentType" : 5126,
            "count" : 32,
            "type" : "VEC2"
        },
        {
            "bufferView" : 86,
            "componentType" : 5126,
            "count" : 32,
            "type" : "VEC3"
        },
        {
            "bufferView" : 87,
            "componentType" : 5123,
            "count" : 60,
            "type" : "SCALAR"
        },
        {
            "bufferView" : 88,
            "componentType" : 5126,
            "count" : 42,
            "max" : [
                0.2124127894639969,
                -0.06666667014360428,
                0.06666673719882965
            ],
            "min" : [
                0.06666656583547592,
                -0.21241286396980286,
                -0.06666668504476547
            ],
            "type" : "VEC3"
        },
        {
            "bufferView" : 89,
            "componentType" : 5126,
            "count" : 42,
            "type" : "VEC2"
        },
        {
            "bufferView" : 90,
            "componentType" : 5126,
            "count" : 42,
            "type" : "VEC3"
        },
        {
            "bufferView" : 91,
            "componentType" : 5123,
            "count" : 84,
            "type" : "SCALAR"
        },
        {
            "bufferView" : 92,
            "componentType" : 5126,
            "count" : 54,
            "max" : [
                -0.06666668504476547,
                -0.0666666179895401,
                0.2124127745628357
            ],
            "min" : [
                -0.21241284906864166,
                -0.21241281926631927,
                0.0666666105389595
            ],
            "type" : "VEC3"
        },
        {
            "bufferView" : 93,
            "componentType" : 5126,
            "count" : 54,
            "type" : "VEC2"
        },
        {
            "bufferView" : 94,
            "componentType" : 5126,
            "count" : 54,
            "type" : "VEC3"
        },
        {
            "bufferView" : 95,
            "componentType" : 5123,
            "count" : 108,
            "type" : "SCALAR"
        },
        {
            "bufferView" : 96,
            "componentType" : 5126,
            "count" : 42,
            "max" : [
                0.06666664034128189,
                -0.06666665524244308,
                0.2124127745628357
            ],
            "min" : [
                -0.06666672974824905,
                -0.21241286396980286,
                0.0666666105389595
            ],
            "type" : "VEC3"
        },
        {
            "bufferView" : 97,
            "componentType" : 5126,
            "count" : 42,
            "type" : "VEC2"
        },
        {
            "bufferView" : 98,
            "componentType" : 5126,
            "count" : 42,
            "type" : "VEC3"
        },
        {
            "bufferView" : 99,
            "componentType" : 5123,
            "count" : 84,
            "type" : "SCALAR"
        },
        {
            "bufferView" : 100,
            "componentType" : 5126,
            "count" : 54,
            "max" : [
                0.2124127298593521,
                -0.06666669994592667,
                0.21241286396980286
            ],
            "min" : [
                0.06666650623083115,
                -0.21241290867328644,
                0.06666664034128189
            ],
            "type" : "VEC3"
        },
        {
            "bufferView" : 101,
            "componentType" : 5126,
            "count" : 54,
            "type" : "VEC2"
        },
        {
            "bufferView" : 102,
            "componentType" : 5126,
            "count" : 54,
            "type" : "VEC3"
        },
        {
            "bufferView" : 103,
            "componentType" : 5123,
            "count" : 108,
            "type" : "SCALAR"
        },
        {
            "bufferView" : 104,
            "componentType" : 5126,
            "count" : 32,
            "max" : [
                0.1521778702735901,
                0.15217769145965576,
                0.1521778702735901
            ],
            "min" : [
                -0.1521778702735901,
                -0.15217804908752441,
                -0.1521778702735901
            ],
            "type" : "VEC3"
        },
        {
            "bufferView" : 105,
            "componentType" : 5126,
            "count" : 32,
            "type" : "VEC2"
        },
        {
            "bufferView" : 106,
            "componentType" : 5126,
            "count" : 32,
            "type" : "VEC3"
        },
        {
            "bufferView" : 107,
            "componentType" : 5123,
            "count" : 132,
            "type" : "SCALAR"
        }
    ],
    "bufferViews" : [
        {
            "buffer" : 0,
            "byteLength" : 648,
            "byteOffset" : 0,
            "target" : 34962
        },
        {
            "buffer" : 0,
            "byteLength" : 432,
            "byteOffset" : 648,
            "target" : 34962
        },
        {
            "buffer" : 0,
            "byteLength" : 648,
            "byteOffset" : 1080,
            "target" : 34962
        },
        {
            "buffer" : 0,
            "byteLength" : 216,
            "byteOffset" : 1728,
            "target" : 34963
        },
        {
            "buffer" : 0,
            "byteLength" : 504,
            "byteOffset" : 1944,
            "target" : 34962
        },
        {
            "buffer" : 0,
            "byteLength" : 336,
            "byteOffset" : 2448,
            "target" : 34962
        },
        {
            "buffer" : 0,
            "byteLength" : 504,
            "byteOffset" : 2784,
            "target" : 34962
        },
        {
            "buffer" : 0,
            "byteLength" : 168,
            "byteOffset" : 3288,
            "target" : 34963
        },
        {
            "buffer" : 0,
            "byteLength" : 648,
            "byteOffset" : 3456,
            "target" : 34962
        },
        {
            "buffer" : 0,
            "byteLength" : 432,
            "byteOffset" : 4104,
            "target" : 34962
        },
        {
            "buffer" : 0,
            "byteLength" : 648,
            "byteOffset" : 4536,
            "target" : 34962
        },
        {
            "buffer" : 0,
            "byteLength" : 216,
            "byteOffset" : 5184,
            "target" : 34963
        },
        {
            "buffer" : 0,
            "byteLength" : 504,
            "byteOffset" : 5400,
            "target" : 34962
        },
        {
            "buffer" : 0,
            "byteLength" : 336,
            "byteOffset" : 5904,
            "target" : 34962
        },
        {
            "buffer" : 0,
            "byteLength" : 504,
            "byteOffset" : 6240,
            "target" : 34962
        },
        {
            "buffer" : 0,
            "byteLength" : 168,
            "byteOffset" : 6744,
            "target" : 34963
        },
        {
            "buffer" : 0,
            "byteLength" : 384,
            "byteOffset" : 6912,
            "target" : 34962
        },
        {
            "buffer" : 0,
            "byteLength" : 256,
            "byteOffset" : 7296,
            "target" : 34962
        },
        {
            "buffer" : 0,
            "byteLength" : 384,
            "byteOffset" : 7552,
            "target" : 34962
        },
        {
            "buffer" : 0,
            "byteLength" : 120,
            "byteOffset" : 7936,
            "target" : 34963
        },
        {
            "buffer" : 0,
            "byteLength" : 504,
            "byteOffset" : 8056,
            "target" : 34962
        },
        {
            "buffer" : 0,
            "byteLength" : 336,
            "byteOffset" : 8560,
            "target" : 34962
        },
        {
            "buffer" : 0,
            "byteLength" : 504,
            "byteOffset" : 8896,
            "target" : 34962
        },
        {
            "buffer" : 0,
            "byteLength" : 168,
            "byteOffset" : 9400,
            "target" : 34963
        },
        {
            "buffer" : 0,
            "byteLength" : 648,
            "byteOffset" : 9568,
            "target" : 34962
        },
        {
            "buffer" : 0,
            "byteLength" : 432,
            "byteOffset" : 10216,
            "target" : 34962
        },
        {
            "buffer" : 0,
            "byteLength" : 648,
            "byteOffset" : 10648,
            "target" : 34962
        },
        {
            "buffer" : 0,
            "byteLength" : 216,
            "byteOffset" : 11296,
            "target" : 34963
        },
        {
            "buffer" : 0,
            "byteLength" : 504,
            "byteOffset" : 11512,
            "target" : 34962
        },
        {
            "buffer" : 0,
            "byteLength" : 336,
            "byteOffset" : 12016,
            "target" : 34962
        },
        {
            "buffer" : 0,
            "byteLength" : 504,
            "byteOffset" : 12352,
            "target" : 34962
        },
        {
            "buffer" : 0,
            "byteLength" : 168,
            "byteOffset" : 12856,
            "target" : 34963
        },
        {
            "buffer" : 0,
            "byteLength" : 648,
            "byteOffset" : 13024,
            "target" : 34962
        },
        {
            "buffer" : 0,
            "byteLength" : 432,
            "byteOffset" : 13672,
            "target" : 34962
        },
        {
            "buffer" : 0,
            "byteLength" : 648,
            "byteOffset" : 14104,
            "target" : 34962
        },
        {
            "buffer" : 0,
            "byteLength" : 216,
            "byteOffset" : 14752,
            "target" : 34963
        },
        {
            "buffer" : 0,
            "byteLength" : 504,
            "byteOffset" : 14968,
            "target" : 34962
        },
        {
            "buffer" : 0,
            "byteLength" : 336,
            "byteOffset" : 15472,
            "target" : 34962
        },
        {
            "buffer" : 0,
            "byteLength" : 504,
            "byteOffset" : 15808,
            "target" : 34962
        },
        {
            "buffer" : 0,
            "byteLength" : 168,
            "byteOffset" : 16312,
            "target" : 34963
        },
        {
            "buffer" : 0,
            "byteLength" : 384,
            "byteOffset" : 16480,
            "target" : 34962
        },
        {
            "buffer" : 0,
            "byteLength" : 256,
            "byteOffset" : 16864,
            "target" : 34962
        },
        {
            "buffer" : 0,
            "byteLength" : 384,
            "byteOffset" : 17120,
            "target" : 34962
        },
        {
            "buffer" : 0,
            "byteLength" : 120,
            "byteOffset" : 17504,
            "target" : 34963
        },
        {
            "buffer" : 0,
            "byteLength" : 504,
            "byteOffset" : 17624,
            "target" : 34962
        },
        {
            "buffer" : 0,
            "byteLength" : 336,
            "byteOffset" : 18128,
            "target" : 34962
        },
        {
            "buffer" : 0,
            "byteLength" : 504,
            "byteOffset" : 18464,
            "target" : 34962
        },
        {
            "buffer" : 0,
            "byteLength" : 168,
            "byteOffset" : 18968,
            "target" : 34963
        },
        {
            "buffer" : 0,
            "byteLength" : 384,
            "byteOffset" : 19136,
            "target" : 34962
        },
        {
            "buffer" : 0,
            "byteLength" : 256,
            "byteOffset" : 19520,
            "target" : 34962
        },
        {
            "buffer" : 0,
            "byteLength" : 384,
            "byteOffset" : 19776,
            "target" : 34962
        },
        {
            "buffer" : 0,
            "byteLength" : 120,
            "byteOffset" : 20160,
            "target" : 34963
        },
        {
            "buffer" : 0,
            "byteLength" : 384,
            "byteOffset" : 20280,
            "target" : 34962
        },
        {
            "buffer" : 0,
            "byteLength" : 256,
            "byteOffset" : 20664,
            "target" : 34962
        },
        {
            "buffer" : 0,
            "byteLength" : 384,
            "byteOffset" : 20920,
            "target" : 34962
        },
        {
            "buffer" : 0,
            "byteLength" : 120,
            "byteOffset" : 21304,
            "target" : 34963
        },
        {
            "buffer" : 0,
            "byteLength" : 504,
            "byteOffset" : 21424,
            "target" : 34962
        },
        {
            "buffer" : 0,
            "byteLength" : 336,
            "byteOffset" : 21928,
            "target" : 34962
        },
        {
            "buffer" : 0,
            "byteLength" : 504,
            "byteOffset" : 22264,
            "target" : 34962
        },
        {
            "buffer" : 0,
            "byteLength" : 168,
            "byteOffset" : 22768,
            "target" : 34963
        },
        {
            "buffer" : 0,
            "byteLength" : 384,
            "byteOffset" : 22936,
            "target" : 34962
        },
        {
            "buffer" : 0,
            "byteLength" : 256,
            "byteOffset" : 23320,
            "target" : 34962
        },
        {
            "buffer" : 0,
            "byteLength" : 384,
            "byteOffset" : 23576,
            "target" : 34962
        },
        {
            "buffer" : 0,
            "byteLength" : 120,
            "byteOffset" : 23960,
            "target" : 34963
        },
        {
            "buffer" : 0,
            "byteLength" : 504,
            "byteOffset" : 24080,
            "target" : 34962
        },
        {
            "buffer" : 0,
            "byteLength" : 336,
            "byteOffset" : 24584,
            "target" : 34962
        },
        {
            "buffer" : 0,
            "byteLength" : 504,
            "byteOffset" : 24920,
            "target" : 34962
        },
        {
            "buffer" : 0,
            "byteLength" : 168,
            "byteOffset" : 25424,
            "target" : 34963
        },
        {
            "buffer" : 0,
            "byteLength" : 648,
            "byteOffset" : 25592,
            "target" : 34962
        },
        {
            "buffer" : 0,
            "byteLength" : 432,
            "byteOffset" : 26240,
            "target" : 34962
        },
        {
            "buffer" : 0,
            "byteLength" : 648,
            "byteOffset" : 26672,
            "target" : 34962
        },
        {
            "buffer" : 0,
            "byteLength" : 216,
            "byteOffset" : 27320,
            "target" : 34963
        },
        {
            "buffer" : 0,
            "byteLength" : 504,
            "byteOffset" : 27536,
            "target" : 34962
        },
        {
            "buffer" : 0,
            "byteLength" : 336,
            "byteOffset" : 28040,
            "target" : 34962
        },
        {
            "buffer" : 0,
            "byteLength" : 504,
            "byteOffset" : 28376,
            "target" : 34962
        },
        {
            "buffer" : 0,
            "byteLength" : 168,
            "byteOffset" : 28880,
            "target" : 34963
        },
        {
            "buffer" : 0,
            "byteLength" : 648,
            "byteOffset" : 29048,
            "target" : 34962
        },
        {
            "buffer" : 0,
            "byteLength" : 432,
            "byteOffset" : 29696,
            "target" : 34962
        },
        {
            "buffer" : 0,
            "byteLength" : 648,
            "byteOffset" : 30128,
            "target" : 34962
        },
        {
            "buffer" : 0,
            "byteLength" : 216,
            "byteOffset" : 30776,
            "target" : 34963
        },
        {
            "buffer" : 0,
            "byteLength" : 504,
            "byteOffset" : 30992,
            "target" : 34962
        },
        {
            "buffer" : 0,
            "byteLength" : 336,
            "byteOffset" : 31496,
            "target" : 34962
        },
        {
            "buffer" : 0,
            "byteLength" : 504,
            "byteOffset" : 31832,
            "target" : 34962
        },
        {
            "buffer" : 0,
            "byteLength" : 168,
            "byteOffset" : 32336,
            "target" : 34963
        },
        {
            "buffer" : 0,
            "byteLength" : 384,
            "byteOffset" : 32504,
            "target" : 34962
        },
        {
            "buffer" : 0,
            "byteLength" : 256,
            "byteOffset" : 32888,
            "target" : 34962
        },
        {
            "buffer" : 0,
            "byteLength" : 384,
            "byteOffset" : 33144,
            "target" : 34962
        },
        {
            "buffer" : 0,
            "byteLength" : 120,
            "byteOffset" : 33528,
            "target" : 34963
        },
        {
            "buffer" : 0,
            "byteLength" : 504,
            "byteOffset" : 33648,
            "target" : 34962
        },
        {
            "buffer" : 0,
            "byteLength" : 336,
            "byteOffset" : 34152,
            "target" : 34962
        },
        {
            "buffer" : 0,
            "byteLength" : 504,
            "byteOffset" : 34488,
            "target" : 34962
        },
        {
            "buffer" : 0,
            "byteLength" : 168,
            "byteOffset" : 34992,
            "target" : 34963
        },
        {
            "buffer" : 0,
            "byteLength" : 648,
            "byteOffset" : 35160,
            "target" : 34962
        },
        {
            "buffer" : 0,
            "byteLength" : 432,
            "byteOffset" : 35808,
            "target" : 34962
        },
        {
            "buffer" : 0,
            "byteLength" : 648,
            "byteOffset" : 36240,
            "target" : 34962
        },
        {
            "buffer" : 0,
            "byteLength" : 216,
            "byteOffset" : 36888,
            "target" : 34963
        },
        {
            "buffer" : 0,
            "byteLength" : 504,
            "byteOffset" : 37104,
            "target" : 34962
        },
        {
            "buffer" : 0,
            "byteLength" : 336,
            "byteOffset" : 37608,
            "target" : 34962
        },
        {
            "buffer" : 0,
            "byteLength" : 504,
            "byteOffset" : 37944,
            "target" : 34962
        },
        {
            "buffer" : 0,
            "byteLength" : 168,
            "byteOffset" : 38448,
            "target" : 34963
        },
        {
            "buffer" : 0,
            "byteLength" : 648,
            "byteOffset" : 38616,
            "target" : 34962
        },
        {
            "buffer" : 0,
            "byteLength" : 432,
            "byteOffset" : 39264,
            "target" : 34962
        },
        {
            "buffer" : 0,
            "byteLength" : 648,
            "byteOffset" : 39696,
            "target" : 34962
        },
        {
            "buffer" : 0,
            "byteLength" : 216,
            "byteOffset" : 40344,
            "target" : 34963
        },
        {
            "buffer" : 0,
            "byteLength" : 384,
            "byteOffset" : 40560,
            "target" : 34962
        },
        {
            "buffer" : 0,
            "byteLength" : 256,
            "byteOffset" : 40944,
            "target" : 34962
        },
        {
            "buffer" : 0,
            "byteLength" : 384,
            "byteOffset" : 41200,
            "target" : 34962
        },
        {
            "buffer" : 0,
            "byteLength" : 264,
            "byteOffset" : 41584,
            "target" : 34963
        }
    ],
    "samplers" : [
        {
            "magFilter" : 9729,
            "minFilter" : 9987
        }
    ],
    "buffers" : [
        {
            "byteLength" : 41848,
            "uri" : "puzzlecube_center.bin"
        }
    ]
}
